<svg width="24" height="24" viewBox="0 0 24 24" fill="none" xmlns="http://www.w3.org/2000/svg">
<g clip-path="url(#clip0_25_278)">
<path fill-rule="evenodd" clip-rule="evenodd" d="M9.78799 2H14.212C15.0305 1.99999 15.7061 1.99998 16.2561 2.04565C16.8274 2.0931 17.3523 2.19496 17.8439 2.45035C18.5745 2.82985 19.1702 3.42553 19.5497 4.1561C19.805 4.64774 19.9069 5.17258 19.9544 5.74393C20 6.29393 20 6.96946 20 7.78798V16.6227C20 17.5855 20 18.3755 19.9473 18.9759C19.8975 19.5418 19.7878 20.2088 19.348 20.6916C18.8075 21.2847 18.0153 21.5824 17.218 21.4919C16.5691 21.4182 16.0473 20.9884 15.6372 20.5953C15.2022 20.1783 14.6819 19.5837 14.0479 18.8591L13.6707 18.428C13.2362 17.9314 12.9521 17.6081 12.7167 17.3821C12.4887 17.1631 12.3806 17.1107 12.3262 17.0919C12.1148 17.019 11.8852 17.019 11.6738 17.0919C11.6194 17.1107 11.5113 17.1631 11.2833 17.3821C11.0479 17.6081 10.7638 17.9314 10.3293 18.428L9.95209 18.8591C9.31809 19.5837 8.79784 20.1782 8.36276 20.5953C7.95272 20.9884 7.43089 21.4182 6.78196 21.4919C5.9847 21.5824 5.19246 21.2847 4.65205 20.6916C4.21218 20.2088 4.10248 19.5418 4.05275 18.9759C3.99997 18.3755 3.99998 17.5855 4 16.6227V7.78799C3.99999 6.96947 3.99998 6.29393 4.04565 5.74393C4.0931 5.17258 4.19496 4.64774 4.45035 4.1561C4.82985 3.42553 5.42553 2.82985 6.1561 2.45035C6.64774 2.19496 7.17258 2.0931 7.74393 2.04565C8.29393 1.99998 8.96947 1.99999 9.78799 2ZM7.90945 4.03879C7.46401 4.07578 7.23663 4.1428 7.07805 4.22517C6.71277 4.41493 6.41493 4.71277 6.22517 5.07805C6.1428 5.23663 6.07578 5.46401 6.03879 5.90945C6.0008 6.36686 6 6.95898 6 7.83V16.5726C6 17.5978 6.00094 18.2988 6.04506 18.8008C6.08138 19.2139 6.13928 19.3436 6.14447 19.3594C6.2472 19.4633 6.39033 19.5171 6.53606 19.5065C6.55034 19.4981 6.67936 19.4386 6.97871 19.1516C7.34245 18.8029 7.80478 18.2759 8.4799 17.5044L8.85192 17.0792C9.25094 16.6232 9.59229 16.233 9.89819 15.9393C10.2186 15.6317 10.5732 15.3559 11.0214 15.2013C11.6555 14.9825 12.3445 14.9825 12.9786 15.2013C13.4268 15.3559 13.7814 15.6317 14.1018 15.9393C14.4077 16.233 14.7491 16.6232 15.1481 17.0792L15.5201 17.5044C16.1952 18.2759 16.6576 18.8029 17.0213 19.1516C17.3206 19.4386 17.4497 19.4981 17.4639 19.5065C17.6097 19.5171 17.7528 19.4633 17.8555 19.3594C17.8607 19.3436 17.9186 19.2139 17.9549 18.8008C17.9991 18.2988 18 17.5978 18 16.5726V7.83C18 6.95898 17.9992 6.36686 17.9612 5.90945C17.9242 5.46401 17.8572 5.23663 17.7748 5.07805C17.5851 4.71277 17.2872 4.41493 16.9219 4.22517C16.7634 4.1428 16.536 4.07578 16.0905 4.03879C15.6331 4.0008 15.041 4 14.17 4H9.83C8.95898 4 8.36686 4.0008 7.90945 4.03879Z" fill="#56FF71"/>
</g>
<defs>
<clipPath id="clip0_25_278">
<rect width="24" height="24" fill="white"/>
</clipPath>
</defs>
</svg>
