<svg width="164" height="24" viewBox="0 0 164 24" fill="none" xmlns="http://www.w3.org/2000/svg">
<path fill-rule="evenodd" clip-rule="evenodd" d="M10.1631 2.7372C10.8572 1.12528 13.1427 1.12528 13.8369 2.7372L15.4229 6.42011C15.5677 6.75629 15.8846 6.98651 16.249 7.02031L20.2418 7.39063C21.9893 7.55271 22.6956 9.72633 21.377 10.8846L18.3645 13.5311C18.0895 13.7727 17.9685 14.1452 18.049 14.5023L18.9306 18.414C19.3165 20.1261 17.4675 21.4695 15.9584 20.5734L12.5105 18.5262C12.1958 18.3393 11.8041 18.3393 11.4894 18.5262L8.04154 20.5734C6.53248 21.4695 4.68348 20.1261 5.06936 18.414L5.95099 14.5023C6.03147 14.1452 5.91044 13.7727 5.63545 13.5311L2.62291 10.8846C1.30438 9.72633 2.01063 7.55271 3.75818 7.39063L7.75094 7.02031C8.1154 6.98651 8.43227 6.75629 8.57704 6.42011L10.1631 2.7372ZM13.586 7.21117L12 3.52826L10.4139 7.21117C9.97963 8.21969 9.02902 8.91036 7.93564 9.01176L3.94288 9.38208L6.95542 12.0286C7.78038 12.7533 8.14348 13.8708 7.90205 14.942L7.02042 18.8538L10.4683 16.8065C11.4125 16.2458 12.5875 16.2458 13.5317 16.8065L16.9795 18.8538L16.0979 14.942C15.8565 13.8708 16.2196 12.7533 17.0445 12.0286L20.0571 9.38208L16.0643 9.01176C14.9709 8.91036 14.0203 8.21969 13.586 7.21117Z" fill="#56FF71"/>
<path fill-rule="evenodd" clip-rule="evenodd" d="M45.1631 2.7372C45.8572 1.12528 48.1427 1.12528 48.8369 2.7372L50.4229 6.42011C50.5677 6.75629 50.8846 6.98651 51.249 7.02031L55.2418 7.39063C56.9893 7.55271 57.6956 9.72633 56.377 10.8846L53.3645 13.5311C53.0895 13.7727 52.9685 14.1452 53.049 14.5023L53.9306 18.414C54.3165 20.1261 52.4675 21.4695 50.9584 20.5734L47.5105 18.5262C47.1958 18.3393 46.8041 18.3393 46.4894 18.5262L43.0415 20.5734C41.5325 21.4695 39.6835 20.1261 40.0694 18.414L40.951 14.5023C41.0315 14.1452 40.9104 13.7727 40.6355 13.5311L37.6229 10.8846C36.3044 9.72633 37.0106 7.55271 38.7582 7.39063L42.7509 7.02031C43.1154 6.98651 43.4323 6.75629 43.577 6.42011L45.1631 2.7372ZM48.586 7.21117L47 3.52826L45.4139 7.21117C44.9796 8.21969 44.029 8.91036 42.9356 9.01176L38.9429 9.38208L41.9554 12.0286C42.7804 12.7533 43.1435 13.8708 42.9021 14.942L42.0204 18.8538L45.4683 16.8065C46.4125 16.2458 47.5875 16.2458 48.5317 16.8065L51.9795 18.8538L51.0979 14.942C50.8565 13.8708 51.2196 12.7533 52.0445 12.0286L55.0571 9.38208L51.0643 9.01176C49.9709 8.91036 49.0203 8.21969 48.586 7.21117Z" fill="#56FF71"/>
<path fill-rule="evenodd" clip-rule="evenodd" d="M80.1631 2.7372C80.8572 1.12528 83.1427 1.12528 83.8369 2.7372L85.4229 6.42011C85.5677 6.75629 85.8846 6.98651 86.249 7.02031L90.2418 7.39063C91.9893 7.55271 92.6956 9.72633 91.377 10.8846L88.3645 13.5311C88.0895 13.7727 87.9685 14.1452 88.049 14.5023L88.9306 18.414C89.3165 20.1261 87.4675 21.4695 85.9584 20.5734L82.5105 18.5262C82.1958 18.3393 81.8041 18.3393 81.4894 18.5262L78.0415 20.5734C76.5325 21.4695 74.6835 20.1261 75.0694 18.414L75.951 14.5023C76.0315 14.1452 75.9104 13.7727 75.6355 13.5311L72.6229 10.8846C71.3044 9.72633 72.0106 7.55271 73.7582 7.39063L77.7509 7.02031C78.1154 6.98651 78.4323 6.75629 78.577 6.42011L80.1631 2.7372ZM83.586 7.21117L82 3.52826L80.4139 7.21117C79.9796 8.21969 79.029 8.91036 77.9356 9.01176L73.9429 9.38208L76.9554 12.0286C77.7804 12.7533 78.1435 13.8708 77.9021 14.942L77.0204 18.8538L80.4683 16.8065C81.4125 16.2458 82.5875 16.2458 83.5317 16.8065L86.9795 18.8538L86.0979 14.942C85.8565 13.8708 86.2196 12.7533 87.0445 12.0286L90.0571 9.38208L86.0643 9.01176C84.9709 8.91036 84.0203 8.21969 83.586 7.21117Z" fill="#56FF71"/>
<path fill-rule="evenodd" clip-rule="evenodd" d="M115.163 2.7372C115.857 1.12528 118.143 1.12528 118.837 2.7372L120.423 6.42011C120.568 6.75629 120.885 6.98651 121.249 7.02031L125.242 7.39063C126.989 7.55271 127.696 9.72633 126.377 10.8846L123.364 13.5311C123.09 13.7727 122.968 14.1452 123.049 14.5023L123.931 18.414C124.316 20.1261 122.467 21.4695 120.958 20.5734L117.511 18.5262C117.196 18.3393 116.804 18.3393 116.489 18.5262L113.042 20.5734C111.532 21.4695 109.683 20.1261 110.069 18.414L110.951 14.5023C111.031 14.1452 110.91 13.7727 110.635 13.5311L107.623 10.8846C106.304 9.72633 107.011 7.55271 108.758 7.39063L112.751 7.02031C113.115 6.98651 113.432 6.75629 113.577 6.42011L115.163 2.7372ZM118.586 7.21117L117 3.52826L115.414 7.21117C114.98 8.21969 114.029 8.91036 112.936 9.01176L108.943 9.38208L111.955 12.0286C112.78 12.7533 113.143 13.8708 112.902 14.942L112.02 18.8538L115.468 16.8065C116.412 16.2458 117.587 16.2458 118.532 16.8065L121.98 18.8538L121.098 14.942C120.856 13.8708 121.22 12.7533 122.045 12.0286L125.057 9.38208L121.064 9.01176C119.971 8.91036 119.02 8.21969 118.586 7.21117Z" fill="#56FF71"/>
<path fill-rule="evenodd" clip-rule="evenodd" d="M150.163 2.7372C150.857 1.12528 153.143 1.12528 153.837 2.7372L155.423 6.42011C155.568 6.75629 155.885 6.98651 156.249 7.02031L160.242 7.39063C161.989 7.55271 162.696 9.72633 161.377 10.8846L158.364 13.5311C158.09 13.7727 157.968 14.1452 158.049 14.5023L158.931 18.414C159.316 20.1261 157.467 21.4695 155.958 20.5734L152.511 18.5262C152.196 18.3393 151.804 18.3393 151.489 18.5262L148.042 20.5734C146.532 21.4695 144.683 20.1261 145.069 18.414L145.951 14.5023C146.031 14.1452 145.91 13.7727 145.635 13.5311L142.623 10.8846C141.304 9.72633 142.011 7.55271 143.758 7.39063L147.751 7.02031C148.115 6.98651 148.432 6.75629 148.577 6.42011L150.163 2.7372ZM153.586 7.21117L152 3.52826L150.414 7.21117C149.98 8.21969 149.029 8.91036 147.936 9.01176L143.943 9.38208L146.955 12.0286C147.78 12.7533 148.143 13.8708 147.902 14.942L147.02 18.8538L150.468 16.8065C151.412 16.2458 152.587 16.2458 153.532 16.8065L156.98 18.8538L156.098 14.942C155.856 13.8708 156.22 12.7533 157.045 12.0286L160.057 9.38208L156.064 9.01176C154.971 8.91036 154.02 8.21969 153.586 7.21117Z" fill="#CACACA"/>
</svg>
