<svg width="140" height="24" viewBox="0 0 140 24" fill="none" xmlns="http://www.w3.org/2000/svg">
<path d="M5.825 22L8.15 14.4L2 10H9.6L12 2L14.4 10H22L15.85 14.4L18.175 22L12 17.3L5.825 22Z" fill="white"/>
<path d="M34.825 22L37.15 14.4L31 10H38.6L41 2L43.4 10H51L44.85 14.4L47.175 22L41 17.3L34.825 22Z" fill="white"/>
<path d="M63.825 22L66.15 14.4L60 10H67.6L70 2L72.4 10H80L73.85 14.4L76.175 22L70 17.3L63.825 22Z" fill="white"/>
<path d="M92.825 22L95.15 14.4L89 10H96.6L99 2L101.4 10H109L102.85 14.4L105.175 22L99 17.3L92.825 22Z" fill="white"/>
<path d="M122.757 20.6622L124.628 14.5463L124.733 14.2025L124.441 13.9934L119.558 10.5H125.6H125.972L126.079 10.1437L128 3.74005L129.921 10.1437L130.028 10.5H130.4H136.442L131.559 13.9934L131.267 14.2025L131.372 14.5463L133.243 20.6622L128.303 16.9021L128 16.6716L127.697 16.9021L122.757 20.6622Z" stroke="white"/>
</svg>
